<?xml version="1.0" encoding="utf-8"?><!DOCTYPE svg PUBLIC "-//W3C//DTD SVG 1.1//EN" "http://www.w3.org/Graphics/SVG/1.1/DTD/svg11.dtd">
<svg id=".notdef" width="16" height="16" style="width:16px;height:16px;" version="1.1"
     xmlns="http://www.w3.org/2000/svg" viewBox="0 0 1024 1024" enable-background="new 0 0 1024 1024"
     xml:space="preserve"><path fill="#000000" transform="translate(0,100)" d="M512 0 q-104.71 0 -197.88 39.93 q-93.17 39.93 -163.27 110.03 q-70.1 70.1 -110.03 163.28 q-39.93 93.18 -39.93 199.65 q0 106.48 39.93 199.65 q39.93 93.17 110.03 162.38 q70.1 69.22 163.27 109.14 q93.17 39.93 197.88 39.93 q104.71 0 198.77 -39.93 q94.05 -39.93 164.16 -109.14 q70.11 -69.21 109.14 -162.38 q39.04 -93.17 39.04 -199.65 q0 -106.48 -39.04 -199.65 q-39.04 -93.18 -109.14 -163.28 q-70.1 -70.1 -164.16 -110.03 q-94.06 -39.93 -198.77 -39.93 ZM417.94 55.02 q8.87 7.09 8.87 10.64 q0 3.55 -3.55 7.1 q-3.54 3.55 -0.88 2.67 q2.66 -0.89 3.55 -1.78 q0.88 -0.89 4.44 -3.55 q3.55 -2.66 5.32 -0.88 q1.77 1.77 9.76 -2.67 q7.99 -4.44 8.88 -4.44 q0.88 0 0 -1.77 q-0.88 -1.77 -4.44 -0.88 q-3.55 0.89 -6.22 2.66 q-2.66 1.77 -6.21 1.77 q-3.55 0 -3.55 -5.33 l-15.97 -3.54 ZM598.96 78.09 q14.2 0 18.63 -4.44 q4.43 -4.44 9.76 -6.22 q5.32 -1.78 6.21 -1.78 q0.88 0 -4.44 4.44 q-5.32 4.44 -3.54 6.22 q1.77 1.78 -1.78 4.44 q-3.55 2.66 0 1.78 q3.55 -0.89 4.44 -1.78 q0.88 -0.89 -0.88 -6.21 l12.42 -10.65 q0 -3.55 -3.55 -5.33 l-37.27 19.53 ZM442.79 81.63 q0 1.78 -1.78 3.55 q-1.77 1.77 3.55 0.89 q5.32 -0.88 1.78 -3.55 q-3.55 -2.67 -3.55 -0.89 ZM432.13 86.07 q-1.77 0.89 -6.21 1.77 q-4.44 0.89 -5.32 0.89 q-0.88 0 -3.55 4.44 q-2.67 4.44 -2.67 5.33 q0 0.88 3.55 -0.89 q3.55 -1.77 7.99 -4.43 q4.44 -2.66 6.21 -5.32 q1.78 -2.66 0 -1.78 ZM623.81 88.73 q-5.33 0 -10.65 6.21 q-5.32 6.22 -8.88 5.33 q-3.55 -0.89 -6.21 2.66 q-2.66 3.55 -2.66 5.32 q0 1.78 0 6.21 q0 4.44 0.89 4.44 q0.89 0 0.89 -2.66 q0 -2.66 1.77 -7.99 q1.77 -5.32 5.32 -5.32 q3.55 0 1.78 4.44 q-1.78 4.44 0 6.22 q1.77 1.77 0 6.21 q-1.78 4.44 0 5.32 q1.77 0.88 2.66 -1.78 q0.89 -2.66 1.77 -6.21 q0.88 -3.55 2.66 -5.32 q1.77 -1.78 1.77 -3.55 q0 -1.77 -1.77 -3.55 q-1.77 -1.78 -0.88 -6.21 q0.89 -4.44 3.55 -6.21 q2.66 -1.77 7.1 -1.77 q4.44 0 -2.66 17.74 q-7.1 17.75 -6.22 19.52 q0.88 1.78 4.44 0 q1.78 -14.2 2.66 -16.86 q0.88 -2.66 7.99 -20.41 q0 -1.78 -5.32 -1.78 ZM581.21 102.05 q0 6.22 1.77 7.1 q1.77 0.88 3.55 0.88 q1.77 0 1.77 -2.66 q0 -2.66 0 -2.66 q0 0 -2.66 -3.55 q-2.66 -3.55 -3.55 -4.44 q-0.89 -0.89 -0.89 5.33 ZM435.69 102.04 q0 2.67 0 2.67 q0 0 -0.89 2.66 q-0.89 2.66 -2.67 2.66 q-1.77 0 -3.55 -2.66 q-1.78 -2.66 -2.66 -2.66 q-0.88 0 -4.44 -1.78 l8.87 12.43 l-19.52 26.62 q7.1 -5.33 12.43 -9.76 q5.32 -4.44 7.99 -8.88 q2.66 -4.44 7.99 -4.44 q8.87 19.53 14.19 18.64 q5.32 -0.89 21.3 -2.66 l-35.49 -17.75 q-1.78 -3.55 0.88 -6.21 q2.67 -2.66 2.67 -5.33 q0 -2.66 -3.55 -4.44 q-3.55 -1.78 -3.55 0.89 ZM585.65 119.8 q0.89 4.44 2.67 3.55 q1.77 -0.89 0.88 -1.78 q-0.89 -0.88 -2.67 -3.54 q-1.77 -2.66 -0.88 1.77 ZM572.34 120.68 q5.32 3.55 10.64 6.21 q5.33 2.66 46.15 18.64 q-5.32 -1.78 -10.65 -2.66 q-5.32 -0.89 -10.65 -2.67 q-3.55 -1.77 -6.21 -4.44 q-2.66 -2.66 -6.21 -4.43 q-5.32 -1.78 -11.53 -4.44 q-6.22 -2.66 -11.53 -6.21 ZM258.22 129.55 q-3.55 0 -4.44 0 q-0.89 0 -9.76 5.33 l12.42 1.77 q0 8.88 0.89 7.99 q0.89 -0.89 4.44 -5.32 q3.55 -4.44 3.55 -5.32 q0 -0.89 -1.78 -2.67 q-1.77 -1.77 -5.32 -1.77 ZM274.19 133.1 q-21.3 28.4 -21.3 29.28 q0 0.89 4.44 -1.77 q4.44 -2.66 9.77 -10.65 q5.32 -7.98 10.64 -15.08 l-3.55 -1.78 ZM283.06 145.53 q-10.64 5.32 -10.64 7.09 q0 1.78 -5.33 15.97 l-5.32 0 q10.65 15.97 12.43 12.42 q1.77 -3.55 -0.89 -6.21 q-2.67 -2.66 -1.78 -4.44 q0.89 -1.78 2.67 -1.78 q1.77 0 1.77 1.78 q0 1.78 0 2.66 q0 0.88 5.32 2.66 l-12.42 26.63 q1.77 1.77 7.1 1.77 l5.32 -23.07 q3.55 0 3.55 1.78 q0 1.77 0 4.43 q0 2.66 0 3.55 q0 0.89 3.55 0.89 q3.55 0 2.66 -4.44 q-0.89 -4.44 -1.78 -5.32 q-0.88 -0.88 -9.76 -6.22 q5.33 -10.64 5.33 -12.41 q0 -1.78 -5.33 0 l3.55 -17.74 ZM792.4 160.61 q-3.55 7.99 -10.65 14.2 q-7.1 6.21 -23.08 -2.66 l7.1 12.42 q-10.65 8.87 -22.18 14.19 q-11.54 5.33 -23.96 8.88 q10.65 -1.78 23.07 -3.55 q5.32 0 10.64 -3.55 q5.32 -3.55 7.99 -3.55 q2.66 0 4.44 3.55 q1.77 3.55 2.66 5.32 q0.89 1.77 4.44 17.75 l14.2 -1.77 q-8.88 -3.55 -13.31 -9.77 q-4.44 -6.21 -11.54 -16.85 q12.43 -10.65 15.09 -10.65 q2.66 0 22.18 0 q-3.55 -7.1 -4.43 -6.21 q-0.89 0.88 -9.77 -0.89 q10.65 -10.65 12.43 -11.53 q1.77 -0.88 0 -7.1 q-1.77 -6.22 -5.32 1.78 ZM490.7 155.28 q-5.32 0.88 -7.1 13.31 l-15.97 0 l0 -10.65 l-14.19 0 q1.77 14.2 -1.78 15.09 q-3.55 0.88 -4.43 0.88 q-0.89 0 -5.33 0 q-4.44 0 -4.44 -12.42 l-14.19 3.55 q0 0 1.77 5.32 q1.77 5.32 0 6.21 q-1.77 0.89 -4.43 1.78 q-2.67 0.88 -2.67 0.88 q0 0 -4.44 0 q-4.44 0 -6.21 -4.44 q-1.77 -4.44 -7.1 -1.78 q-5.32 2.66 -4.44 7.1 q0.88 4.44 -1.77 6.22 q-2.66 1.78 -4.44 2.66 q-1.77 0.88 -5.32 0.88 q-3.55 0 -8.87 -10.65 l-10.65 5.33 q5.32 12.42 0.88 14.19 q-4.44 1.78 -5.32 2.67 q-0.88 0.89 -3.55 0.89 q-2.67 0 -7.99 -8.88 l-12.42 5.33 q5.32 12.42 0 15.08 q-5.32 2.66 -7.1 2.66 q-1.78 0 -8.88 -8.87 l-8.87 7.1 q3.55 8.87 3.55 11.53 q0 2.66 -1.77 2.66 q-1.78 0 -6.21 1.78 q-4.44 1.78 -7.99 -0.89 q-3.55 -2.66 -5.32 -2.66 q-1.78 0 -5.33 2.66 q-3.55 2.67 0 7.99 q3.55 5.32 0 7.99 q-3.55 2.66 -3.55 3.55 q0 0.88 -2.67 1.78 q-2.66 0.89 -9.75 -6.21 l-10.65 10.65 l7.1 7.1 l-19.53 3.54 l-8.87 12.43 l8.87 8.87 l-8.87 8.87 q-5.32 -1.77 -6.21 -1.77 q-0.89 0 -6.21 -3.55 l-7.1 10.65 q8.87 7.1 7.99 8.88 q-0.88 1.77 -3.55 6.21 q-2.66 4.44 -13.3 -0.89 l-8.88 10.64 l10.65 8.88 l-10.65 10.65 l-7.1 -3.55 l-7.09 12.42 q8.87 3.55 9.75 5.32 q0.89 1.78 -1.77 7.99 q-2.66 6.21 -5.32 6.21 q-2.66 0 -3.55 -0.88 q-0.89 -0.88 -6.21 -2.66 l-5.33 10.65 q10.65 5.32 7.99 13.31 q-2.66 7.99 -15.09 4.44 l-3.55 12.42 l12.43 5.32 l-3.55 12.43 l-12.43 0 q-1.77 14.19 8.88 15.97 l-1.78 14.2 l-12.42 0 q-1.77 5.32 -1.77 7.1 q0 1.77 0.89 4.43 q0.88 2.66 11.53 4.44 l-1.78 14.2 l-12.42 1.77 l0 12.42 l12.42 1.78 l0 15.97 l-12.42 0 l0 14.2 q12.42 0 13.31 2.66 q0.89 2.66 0.89 3.55 q0 0.89 -0.89 5.32 q-0.89 4.44 -11.53 6.22 l1.77 12.42 l12.42 -1.78 l1.78 15.98 l-10.65 3.55 l3.55 12.42 q3.55 -1.78 4.44 -1.78 q0.88 0 3.55 0 q2.67 0 5.33 4.44 q2.66 4.44 2.66 6.21 q0 1.78 -0.88 4.44 q-0.88 2.66 -11.53 4.44 l3.55 12.42 q5.32 -1.78 6.21 -1.78 q0.89 0 6.21 0 l5.33 12.43 q-3.55 3.55 -4.44 3.55 q-0.89 0 -6.21 1.77 l3.55 12.42 q7.1 -1.77 7.98 -2.66 q0.89 -0.89 6.21 -0.89 l5.33 14.2 l-10.65 5.33 l7.1 12.42 q7.1 -5.33 10.65 -2.66 q3.55 2.66 5.33 7.1 q1.77 4.44 -3.55 7.99 q-5.33 3.55 -1.78 8.88 q3.55 5.32 5.33 5.32 q1.77 0 4.43 -2.67 q2.66 -2.66 6.21 -2.66 l8.87 10.65 l-8.87 8.88 l7.1 10.64 q1.77 0 5.32 -3.55 q3.55 -3.54 6.21 -1.77 q2.67 1.77 9.75 10.64 q-8.87 8.87 -4.44 13.31 q4.44 4.44 15.09 -2.66 l8.88 10.64 q-5.33 5.33 -6.22 7.1 q-0.88 1.78 2.67 6.21 q3.55 4.44 5.33 4.44 q1.77 0 5.32 -3.55 q3.55 -3.55 5.32 -3.55 l10.65 10.65 q-7.1 8.87 -5.33 9.76 q1.78 0.89 5.33 3.55 q3.55 2.66 6.21 -1.78 q2.66 -4.43 6.21 -3.55 q3.55 0.88 12.42 7.99 q-5.32 10.65 -5.32 11.54 q0 0.89 4.44 3.55 q4.44 2.66 7.99 -1.78 q3.55 -4.43 6.21 -5.32 q2.67 -0.89 2.67 0.88 q0 1.77 4.44 4.44 q4.44 2.67 1.77 7.99 q-2.66 5.32 -0.89 6.21 q1.77 0.89 6.21 2.66 q4.44 1.77 6.21 -2.67 q1.78 -4.44 5.33 -4.44 q3.55 0 14.19 7.1 q-3.55 8.88 0.89 12.43 q4.44 3.55 5.32 3.55 q0.89 0 2.66 -5.33 q1.77 -5.32 4.44 -5.32 q2.67 0 3.55 0 q0.88 0 6.21 1.77 q5.33 1.77 3.55 7.99 q-1.78 6.21 0.88 7.99 q2.66 1.77 3.55 1.77 q0.89 0 3.55 -0.89 q2.66 -0.89 6.21 -9.76 l14.2 3.55 q1.77 3.55 0 7.1 q-1.78 3.55 0.89 5.32 q2.66 1.78 3.55 1.78 q0.89 0 3.55 0 q2.66 0 4.44 -5.33 q1.78 -5.32 9.76 -4.44 q7.99 0.88 7.99 7.1 q0 6.21 1.77 7.1 q1.78 0.88 2.66 0.88 q0.88 0 4.44 0 q3.55 0 5.33 -12.42 l14.19 0 q1.78 1.77 1.78 12.42 l12.42 0 l1.78 -10.65 l17.74 0 l0 10.65 l12.43 0 l0 -12.42 l15.97 0 q1.77 10.65 7.99 10.65 q6.22 0 5.33 -7.1 q-0.89 -7.1 2.66 -7.1 q3.55 0 4.43 0 q0.88 0 5.33 0 q4.44 0 6.21 10.65 l14.2 -3.55 q-3.55 -12.42 0 -14.19 q3.55 -1.77 4.43 -1.77 q0.88 0 5.33 0.88 q4.44 0.88 5.32 5.32 q0.88 4.44 7.1 2.66 q6.21 -1.77 4.44 -7.1 q-1.77 -5.32 0.89 -7.1 q2.66 -1.77 3.55 -1.77 q0.89 0 5.33 -1.77 q4.43 -1.78 6.21 3.55 q1.77 5.33 3.55 5.33 q1.77 0 6.21 -1.78 q4.43 -1.77 2.66 -7.99 q-1.77 -6.21 1.78 -7.99 q3.55 -1.77 4.44 -1.77 q0.89 0 4.44 -0.88 q3.54 -0.88 5.32 3.55 q1.77 4.43 7.99 1.77 q6.22 -2.66 3.55 -7.09 q-2.66 -4.44 -0.89 -7.1 q1.77 -2.66 14.19 -6.21 q7.1 8.88 11.54 5.33 q4.44 -3.55 -2.66 -14.2 q10.65 -7.1 13.31 -7.99 q2.66 -0.88 6.21 3.55 q3.55 4.44 7.98 0.88 q4.43 -3.55 -0.88 -14.2 q5.32 -8.87 8.87 -9.76 q3.55 -0.89 10.65 7.99 l8.87 -10.65 l-7.1 -7.1 q7.1 -8.87 8.88 -10.65 q1.77 -1.77 5.33 1.78 q3.55 3.55 4.44 3.55 q0.89 0 6.21 -4.44 q5.32 -4.44 0 -7.99 q-5.32 -3.55 -3.55 -7.1 l12.42 -8.87 q5.33 7.1 9.77 1.77 q4.43 -5.33 4.43 -6.21 q0 -0.88 -4.43 -4.43 q-4.44 -3.55 -4.44 -7.1 l10.65 -7.1 q8.87 3.55 12.42 -1.77 q3.55 -5.33 1.77 -7.1 q-1.77 -1.77 -1.77 -2.66 q0 -0.88 -7.1 -2.66 l7.1 -14.2 q3.55 0 7.99 2.67 q4.44 2.66 6.21 0 q1.77 -2.67 2.66 -4.44 q0.89 -1.77 0.89 -3.54 q0 -1.78 -10.65 -8.88 l7.1 -12.43 q10.64 3.55 11.53 3.55 q0.89 0 3.55 -6.21 q2.66 -6.21 -3.55 -7.98 q-6.21 -1.77 -6.21 -3.55 q0 -1.78 5.32 -14.2 l12.43 3.55 l3.55 -10.65 l-12.43 -7.1 l3.55 -14.2 l12.43 1.78 q3.55 -12.42 2.66 -13.31 q-0.89 -0.89 -5.33 -1.78 q-4.44 -0.88 -5.33 -3.55 q-0.89 -2.66 -0.89 -3.55 q0 -0.89 3.55 -9.77 l12.43 0 q1.77 -12.42 -4.44 -13.3 q-6.21 -0.88 -6.21 -7.1 q0 -6.22 0.88 -7.99 q0.88 -1.77 13.3 -1.77 l0 -12.42 l-12.42 -1.77 l0 -15.98 l12.42 0 q0 -5.32 0 -6.2 q0 -0.88 -0.88 -4.44 q-0.88 -3.55 -6.21 -3.55 q-5.33 0 -6.21 -0.89 q-0.88 -0.89 -0.88 -7.99 q0 -7.1 5.33 -7.99 q5.32 -0.88 5.32 -13.3 l-14.2 0 q-1.78 -14.2 -0.89 -15.98 q0.89 -1.77 3.55 -1.77 q2.66 0 3.55 0 q0.89 0 2.67 0 q1.77 0 -1.78 -12.42 l-12.43 0 l-3.55 -14.2 q10.65 -1.78 8.88 -7.99 q-1.77 -6.21 -1.77 -7.1 q0 -0.88 -3.55 0 q-3.55 0.88 -3.55 1.77 q0 0.89 -2.66 0.89 q-2.66 0 -4.44 -5.32 q-1.77 -5.32 -1.77 -8.88 q0 -3.55 5.33 -4.44 q5.33 -0.88 4.44 -2.66 q-0.89 -1.77 -2.67 -6.21 q-1.77 -4.44 -4.44 -3.55 q-2.66 0.89 -4.43 1.77 q-1.77 0.89 -4.43 0 q-2.66 -0.88 -4.44 -7.1 q-1.77 -6.21 1.77 -8.88 q3.55 -2.66 4.44 -3.54 q0.88 -0.88 -2.67 -6.21 q-3.55 -5.32 -5.32 -3.55 q-1.77 1.77 -2.66 1.77 q-0.88 0 -6.22 0 l-7.09 -12.43 q8.87 -5.32 9.75 -7.09 q0.88 -1.77 -2.66 -6.21 q-3.55 -4.44 -7.99 -1.78 q-4.43 2.66 -7.1 1.77 q-2.66 -0.88 -5.33 -6.21 q-2.66 -5.32 1.78 -8.88 q4.44 -3.55 4.44 -4.44 q0 -0.89 -4.44 -5.32 q-4.44 -4.44 -15.08 0.88 l-8.88 -8.87 q8.88 -8.87 4.44 -15.08 q-4.44 -6.21 -8.88 -1.77 q-4.44 4.43 -6.22 4.43 l-8.87 -8.87 l7.1 -10.65 l-10.65 -8.88 q-7.1 7.1 -9.76 6.22 q-2.66 -0.88 -2.66 -0.88 q0 0 -2.66 -2.66 q-2.66 -2.67 -3.55 -4.44 q-0.88 -1.78 1.77 -5.32 q2.66 -3.55 2.66 -4.44 q0 -0.89 -8.87 -7.99 l-10.65 8.88 l-10.65 -8.88 q0 -1.77 2.66 -5.32 q2.66 -3.55 0.89 -5.33 q-1.77 -1.78 -1.77 -2.66 q0 -0.89 -3.55 -2.67 q-3.55 -1.77 -6.21 2.67 q-2.66 4.44 -6.21 3.55 q-3.54 -0.89 -3.54 -0.89 q0 0 -4.44 -2.66 q-4.44 -2.66 -1.78 -7.99 q2.66 -5.32 -7.99 -10.65 l-8.87 8.87 l-12.43 -5.32 q3.55 -12.43 -0.89 -15.09 q-4.43 -2.66 -6.21 -1.77 q-1.77 0.88 -5.33 9.76 l-12.42 -3.55 q-3.55 -1.78 -1.77 -6.22 q1.77 -4.44 0 -6.21 q-1.77 -1.77 -3.55 -2.66 q-1.77 -0.89 -4.44 -0.89 q-2.66 0 -4.44 4.44 q-1.78 4.44 -5.32 4.44 q-3.54 0 -4.44 0 q-0.89 0 -4.44 -0.89 q-3.55 -0.89 -2.66 -4.44 q0.89 -3.54 0.89 -3.54 q0 0 -0.89 -2.66 q-0.89 -2.66 -6.22 -3.55 q-5.32 -0.88 -7.09 9.77 q-17.75 -3.55 -16.86 -8.88 q0.89 -5.32 0 -6.21 q-0.89 -0.89 -6.21 -0.89 q-5.33 0 -7.1 12.43 l-17.75 -1.78 q0 -12.42 -5.33 -12.42 q-5.32 0 -8.88 12.42 l-15.97 0 q0 -10.65 -0.89 -11.53 q-0.88 -0.88 -6.21 0 ZM302.59 171.26 q-1.78 -2.66 -4.44 -2.66 q-2.66 0 -6.21 0.89 q-3.55 0.88 -3.55 1.77 q0 0.89 1.77 1.78 q1.78 0.88 2.66 0.88 q0.88 0 3.55 1.78 q2.67 1.78 5.33 0.88 q2.66 -0.89 2.66 -1.77 q0 -0.89 -1.77 -3.55 ZM474.73 417.05 l44.37 0 l0 -172.14 l-44.37 0 l0 172.14 ZM533.3 418.83 l28.39 0 l0 -172.15 l-28.39 0 l0 172.15 ZM135.76 255.56 q1.78 3.55 4.44 7.99 q2.66 4.44 4.44 7.98 q12.42 10.65 14.2 9.76 q1.78 -0.89 0.89 5.32 q-0.89 6.21 0 4.44 q0.88 -1.77 6.2 -1.77 l8.88 14.19 l1.77 0 q-1.77 -26.62 -0.89 -15.09 q0.89 11.54 -6.22 -9.75 q-1.77 0 -0.88 -2.66 q0.88 -2.67 0.88 -4.44 q0 -3.55 -0.88 -6.21 q-0.88 -2.66 -0.88 -6.21 q-1.78 -1.78 -6.22 0.88 q-4.44 2.67 -0.88 3.55 q3.55 0.88 3.55 2.66 q0 1.77 -3.55 1.77 q-3.55 0 -5.33 -4.44 q-1.78 -4.44 -8.88 -6.22 q-1.77 -1.77 -4.44 -1.77 q-2.66 0 -6.22 0 ZM469.41 260.88 q-10.65 8.87 -16.86 13.31 q-6.21 4.44 -18.64 9.76 q-21.29 7.1 -41.7 9.76 q-20.41 2.66 -36.38 22.19 q-1.78 3.55 -0.89 7.1 q0.89 3.55 0.89 7.09 l113.58 0 l0 -69.21 ZM892.67 267.98 q-2.66 5.32 -3.55 6.21 q-0.88 0.89 -4.43 4.44 q-3.55 3.55 -0.89 6.21 q2.66 2.66 0 4.43 q-2.66 1.78 -3.55 1.78 q-0.89 0 -3.55 0 q-2.66 0 0 0.88 q2.66 0.88 6.21 3.55 q3.55 2.66 5.32 1.77 q1.77 -0.89 0 -2.66 q-1.77 -1.78 0 -3.55 l14.19 0 q0 -7.1 0 -8.88 q0 -1.77 -3.55 0.89 q-3.55 2.67 -4.44 3.55 q-0.88 0.88 -4.43 0.88 q-3.55 0 -3.55 -3.55 q7.1 -8.87 7.1 -10.65 q0 -1.77 0.88 -6.21 q0.89 -4.44 -1.77 0.88 ZM572.34 276.85 l35.49 141.98 l35.5 0 l19.52 -15.97 q-8.87 -33.72 -14.2 -41.71 q-5.32 -7.99 -49.69 -96.72 l-26.62 12.42 ZM875.82 273.3 q-1.78 3.55 -3.55 4.44 q-1.77 0.89 -0.89 2.66 q0.88 1.78 3.55 0.88 q2.67 -0.89 2.67 -1.77 q0 -0.88 0 -5.32 q0 -4.44 -1.77 -0.89 ZM171.26 324.77 q-10.65 -5.32 -17.75 -9.76 q-7.1 -4.44 -14.2 -13.31 q-8.87 -14.2 -15.08 -25.73 q-6.21 -11.54 -25.73 4.43 l17.74 1.78 l42.6 40.81 q3.54 12.43 3.54 22.19 q0 9.76 -4.44 13.31 q-4.44 3.55 -3.55 5.32 q0.89 1.77 6.21 2.66 q5.32 0.88 8.87 -2.67 q-1.77 -1.77 -5.32 -15.97 q-3.55 -14.2 -3.55 -15.98 q0 -1.78 5.32 -1.78 q5.32 0 5.32 -5.32 ZM922.84 277.74 q-2.66 2.66 -4.43 2.66 q-1.77 0 -7.1 0 q-5.33 0 2.66 3.55 q7.99 3.55 9.76 1.78 q1.77 -1.78 1.77 -6.21 q0 -4.44 -2.66 -1.77 ZM843.87 288.39 q-1.77 0.89 -1.77 4.43 l24.85 3.55 q-8.87 -3.55 -9.76 -3.55 q-0.89 0 -11.54 -1.77 q-1.77 0 0 -1.78 q1.77 -1.77 0.88 -1.77 q-0.89 0 -2.66 0.89 ZM907.75 288.39 q1.77 0.89 1.77 0 q0 -0.89 -0.88 -0.89 q-0.88 0 -1.77 0 q-0.89 0 0.88 0.89 ZM190.78 291.94 q-5.32 4.44 -3.54 7.1 q1.77 2.67 -0.89 7.1 q-2.66 4.44 0.89 0.88 q3.55 -3.55 4.44 -3.55 q0.88 0 2.66 2.66 q1.78 2.67 2.67 3.55 q0.89 0.88 0.89 3.55 q0 2.66 0.88 1.77 q0.89 -0.89 0.89 -5.32 q0 -4.44 -1.78 -7.1 q-1.78 -2.67 0 -7.1 q1.78 -4.44 0.89 -6.21 q-0.88 -1.77 -1.77 -1.77 q-0.89 0 -6.21 4.44 ZM920.18 292.82 q8.87 8.88 7.1 9.77 q-1.77 0.88 -6.21 0.88 q-4.44 0 -14.2 1.77 q-9.76 1.77 -20.41 1.77 q-1.77 -1.77 -1.77 -4.43 q0 -2.67 -3.55 -0.89 q-3.55 1.77 -4.44 0.89 q-0.89 -0.89 -4.44 -3.55 q-3.55 -2.66 28.4 20.42 q0 1.77 -3.55 1.77 q-3.55 0 -8.88 -3.55 q-5.32 -3.55 -8.88 -5.32 q-3.55 -1.78 -1.77 0 q12.42 10.64 13.31 12.41 q0.89 1.78 7.1 1.78 q6.21 0 6.21 -3.55 q0 -3.55 -1.78 -3.55 q-1.77 0 -10.64 -8.88 l1.77 -3.55 l35.49 0 l3.55 -3.55 l-12.42 -10.65 ZM904.2 297.26 q-1.77 2.66 -2.66 2.66 q-0.88 0 -3.55 0 q-2.66 0 1.77 0.89 q4.44 0.89 4.44 0 q0 -0.89 0.88 -3.55 q0.88 -2.66 -0.89 0 ZM838.54 310.57 l15.98 5.33 l3.55 3.55 q-5.33 5.32 -10.66 9.75 q-5.32 4.44 -10.64 4.44 l-8.87 -17.74 l5.32 24.84 q8.87 -1.77 14.19 -7.99 q5.33 -6.21 10.66 -13.31 q5.32 1.77 6.2 2.66 q0.88 0.88 -0.88 1.77 q-1.77 0.89 0 1.77 q1.77 0.89 4.44 3.55 q2.66 2.66 4.44 3.55 q1.77 0.88 1.77 -4.44 q0 -5.32 -4.44 -6.21 q-4.44 -0.88 -14.2 -6.21 q-9.76 -5.32 -12.42 -8.88 q-2.66 -3.55 -4.44 3.55 ZM866.94 312.35 q0 1.77 -2.66 1.77 q-2.66 0 -1.77 0.89 q0.88 0.89 6.21 0.89 q5.33 0 3.55 -2.66 q-1.77 -2.67 -3.55 -2.67 q-1.77 0 -1.77 1.78 ZM142.86 321.22 q-3.55 0 -7.99 5.32 q-4.44 5.32 -9.75 8.88 l17.74 -3.55 q7.1 10.65 7.1 10.65 l0 -19.53 q-3.55 -1.77 -7.1 -1.77 ZM375.35 365.59 l94.06 0 l0 -26.62 l-94.06 0 l0 26.62 ZM377.12 395.76 l92.29 0 l0 -26.62 l-94.06 0 l1.77 26.62 ZM377.12 425.93 l19.52 0 l5.33 -15.98 l1.77 0 l33.72 15.98 l31.95 0 l0 -26.62 l-94.06 0 l1.77 26.62 ZM327.43 683.26 q-7.1 0 -10.65 -1.77 q-3.55 -1.77 -8.87 -3.56 l-8.87 21.3 q56.79 14.2 58.56 14.2 q1.77 0 1.77 -1.78 q0 -1.77 1.77 -5.32 q1.78 -3.55 1.78 -5.32 l-21.3 -10.65 l81.64 -257.33 l-15.98 -8.88 l-79.86 259.11 ZM281.29 477.39 l46.14 26.62 l0 -72.76 l-46.14 0 l0 46.14 ZM336.31 509.34 l28.39 15.97 l28.4 -94.06 l-56.79 0 l0 78.09 ZM401.97 544.83 l17.75 12.42 l154.39 0 l42.6 -37.26 l0 -88.74 l-181.02 0 l-33.72 113.58 ZM632.68 507.56 l14.2 -10.64 l0 -65.67 l-14.2 0 l0 76.31 ZM659.3 438.35 l1.77 51.47 q21.3 -10.65 43.49 -19.52 q22.18 -8.88 47.02 -8.88 q0 7.1 -12.42 12.42 l0 53.24 l12.42 5.33 l0 17.75 l-12.42 7.09 l0 51.47 l12.42 7.1 l0 49.69 l8.88 0 l0 -49.69 l12.42 -7.1 l0 -51.47 q-10.65 -5.32 -12.43 -8.87 q-1.77 -3.55 0.01 -15.97 l12.42 -5.33 l0 -53.24 q-10.65 -5.32 -12.43 -5.32 q-1.77 0 -1.77 -3.55 q0 -3.55 7.1 -7.1 l0 -19.52 l-106.48 0 ZM70.1 575 q0 3.55 1.78 13.31 q1.78 9.76 5.33 15.09 q7.1 8.87 14.2 6.21 q7.1 -2.66 9.76 -7.1 q2.66 -4.44 3.55 -4.44 q0.89 0 4.44 3.55 q3.55 3.55 12.42 0 q8.88 -3.55 8.88 -15.97 q-1.77 -5.32 -3.55 -9.76 q-1.77 -4.44 -5.33 -11.54 l-51.47 10.65 ZM897.11 580.33 l23.07 14.19 q-8.87 5.33 -10.64 5.33 q-1.77 0 -17.75 0 l-1.78 10.65 l58.57 -3.55 q1.77 -7.1 -0.89 -8.88 q-2.66 -1.78 -4.44 -1.78 q-1.77 0 -12.42 -3.55 l-33.72 -19.52 l0 7.1 ZM432.14 596.3 l143.75 0 l0 -23.07 l-141.98 0 l-1.77 23.07 ZM80.75 622.92 l8.87 31.94 l7.1 -1.77 l-7.1 -21.3 q8.88 -3.55 9.76 -4.43 q0.89 -0.88 9.76 0.88 l3.55 15.97 l7.1 0 l-5.32 -21.29 q7.1 -3.55 7.98 -3.55 q0.89 0 7.98 1.77 l5.32 19.53 l7.1 -1.78 l-8.87 -30.17 l-3.55 0 l-49.69 14.2 ZM403.74 640.67 l0 17.74 l195.22 0 l0 -19.52 l-21.3 -26.62 l-150.85 0 l-23.07 28.4 ZM877.59 644.21 q0 5.33 4.44 5.33 q4.43 0 6.21 -5.33 q1.77 -5.32 5.32 -5.32 l37.27 12.42 q5.32 0 6.21 -3.55 q0.89 -3.55 -4.44 -7.09 l-39.04 -12.43 q0 -3.55 1.78 -7.98 q1.77 -4.44 0 -5.32 q-1.78 -0.88 -7.1 -2.66 l-10.65 31.94 ZM93.17 663.74 l3.55 10.64 l53.24 -19.52 l-5.32 -10.65 l-51.47 19.53 ZM874.04 651.31 q-1.78 7.1 0 8.88 l49.69 19.52 q3.55 -5.33 1.77 -8.87 l-51.46 -19.53 ZM874.92 670.84 q-6.21 0 -13.31 8.87 q-7.1 8.87 0 19.52 q15.97 15.97 25.73 1.77 q9.76 -14.2 15.08 -7.99 q5.33 6.21 3.55 11.54 q-1.77 5.32 -7.99 5.32 q-6.21 0 -7.99 3.55 q-1.77 3.55 5.32 7.98 q7.09 4.44 15.97 -8.88 q8.88 -13.31 0 -25.73 q-8.88 -10.65 -15.97 -3.55 q-7.1 7.1 -15.98 12.42 q-1.77 0 -3.54 0 q-1.78 0 -2.67 0 q-0.89 0 -2.66 -1.77 q-1.77 -1.77 -1.77 -6.21 q0 -4.43 1.77 -6.21 q1.77 -1.77 5.32 -1.77 q3.55 0 4.44 0 q0.89 0 2.66 -2.66 q1.78 -2.67 0 -4.44 q-1.77 -1.77 -7.99 -1.77 ZM384.22 731.18 l239.59 0 l0 -56.8 l-241.36 0 l1.77 56.8 ZM109.14 677.93 q-3.55 3.55 -6.21 8.88 q-2.66 5.32 4.44 15.97 q1.77 0 2.66 1.78 q0.89 1.77 2.66 1.77 q1.78 0 6.22 0 q4.44 0 7.98 -1.78 l37.27 -15.97 l-5.32 -8.87 l-31.95 15.97 l-14.2 0 q-3.55 -3.55 -3.55 -4.43 q0 -0.88 4.44 -4.44 q4.44 -3.55 2.67 -7.1 q-1.78 -3.55 -2.67 -4.44 q-0.89 -0.89 -4.44 2.66 ZM116.24 722.3 q3.55 5.33 5.33 7.1 q47.91 -26.62 44.36 -35.49 l-49.69 28.39 ZM871.38 720.53 q0.88 -5.33 -6.21 -11.54 q-7.09 -6.21 -15.97 0.89 q-5.32 5.32 -8.87 10.65 q-3.55 5.32 -7.1 12.42 l40.82 30.17 q5.32 0 10.65 -5.32 l-19.53 -14.2 q8.88 -12.42 13.31 -11.53 q4.44 0.88 16.86 9.75 l5.33 -8.87 q-14.2 -7.1 -15.98 -8.88 q-1.77 -1.78 -7.98 0 q-6.21 1.77 -5.33 -3.55 ZM128.67 738.27 q1.77 5.33 5.32 5.33 l30.17 -17.75 l5.32 -1.77 l-28.39 37.26 q5.32 8.88 7.1 8.88 l47.91 -28.4 l-3.55 -7.1 l-31.94 19.53 l-5.32 1.77 l26.62 -35.49 q-5.33 -10.65 -8.88 -10.65 l-44.36 28.39 ZM806.6 766.67 l40.82 33.72 q10.65 1.77 10.65 -1.78 q0 -3.55 14.19 -21.29 l-7.1 -7.1 l-14.19 19.52 q-5.33 -3.55 -6.22 -4.43 q-0.88 -0.89 -6.22 -6.22 l10.65 -15.97 q0 -1.78 -0.88 -2.66 q-0.89 -0.88 -4.44 -2.66 q-8.88 12.42 -11.54 14.2 q-2.66 1.77 -13.31 -7.11 l14.2 -17.74 l-7.1 -5.33 l-19.52 24.85 ZM219.18 785.31 q3.54 -4.44 0.88 -14.2 q-2.66 -9.76 -15.08 -16.86 q-14.2 -3.55 -27.51 8.87 q-13.31 12.42 -11.54 28.39 q1.78 5.33 7.11 11.54 q5.32 6.21 8.87 9.76 l23.07 -15.97 l-8.88 -14.2 q-7.09 3.55 -5.32 7.1 q1.77 3.55 -8.87 10.65 q-1.78 -1.78 -4.44 -4.44 q-2.66 -2.66 -4.44 -4.44 q-3.55 -8.87 6.22 -16.86 q9.76 -7.99 15.09 -11.53 q10.65 -1.78 15.97 4.44 q5.32 6.21 1.77 10.65 q-3.55 4.44 0 7.99 q3.55 3.55 7.1 -0.88 ZM435.69 762.23 q-1.77 2.66 -1.77 3.55 q0 0.89 -3.55 0.89 q-3.55 0 -3.55 1.77 q0 1.78 8.88 3.55 l0 26.62 l5.32 0 l0 -39.04 q-3.55 0 -5.32 2.66 ZM461.42 786.19 q-4.44 7.1 6.21 13.31 q10.65 6.21 17.75 -2.66 q3.55 -7.1 1.77 -20.41 q-1.77 -13.31 -7.09 -16.86 q-10.65 -5.32 -14.2 2.66 q-3.55 7.99 -1.77 12.42 q1.77 4.44 -2.67 11.54 ZM501.35 794.17 q0 4.44 7.99 6.21 q7.99 1.77 11.53 -5.33 q5.33 -5.32 5.33 -13.3 q0 -7.99 -1.78 -15.09 q0 -3.55 -1.77 -4.44 q-1.77 -0.89 -5.32 -2.66 q-10.64 -5.32 -15.08 3.55 q-4.44 8.87 -0.89 15.97 q1.78 7.1 7.1 7.1 q5.32 0 7.98 0 q2.67 0 2.67 1.77 q0 1.77 -2.67 4.43 q-2.66 2.66 -5.32 2.66 q-2.66 0 -3.55 -0.88 q-0.88 -0.88 -1.78 -2.66 q-0.89 -1.77 -2.66 -1.77 q-1.77 0 -1.77 4.43 ZM553.71 756.91 q-7.99 -9.76 -15.09 12.42 q-7.1 22.18 7.1 31.06 q14.2 1.77 17.75 -9.76 q3.55 -11.53 -7.1 -16.86 q-3.55 -1.78 -6.22 -0.89 q-2.66 0.89 -4.44 0.89 q-1.77 0 0.89 -4.44 q2.66 -4.44 5.33 -4.44 q2.66 0 3.55 2.67 q0.89 2.66 3.55 2.66 q2.66 0 2.66 -1.78 q0 -1.77 -7.99 -11.53 ZM797.73 777.32 q21.29 37.27 15.97 37.27 l-31.95 -21.3 l-7.09 5.32 l51.46 30.17 l5.33 -7.1 q-30.17 -49.69 -33.72 -44.36 ZM764.01 811.04 l37.27 40.81 l7.09 -3.54 l-37.26 -44.37 l-7.1 7.1 ZM751.58 818.14 q24.85 33.71 21.3 33.71 l-35.49 -23.07 l-10.65 8.88 l31.94 42.59 q3.55 0 7.1 -3.55 l-24.84 -35.49 l5.32 0 l37.27 24.84 q7.1 -5.32 3.55 -12.42 l-30.17 -39.04 l-5.33 3.55 ZM714.32 844.76 l21.29 33.71 q1.78 10.65 -1.77 13.32 q-3.55 2.66 -15.98 0.88 l-23.07 -35.49 l-7.1 5.32 q3.55 7.1 10.65 18.63 q7.1 11.53 14.2 20.41 q7.1 5.32 18.63 0 q11.54 -5.33 15.09 -15.98 q0 -1.77 -0.88 -4.44 q-0.88 -2.66 -0.88 -4.43 l-21.3 -35.49 l-8.87 3.55 ZM291.94 880.25 q-7.1 5.32 -7.1 6.21 q0 0.89 -3.55 0 q-3.55 -0.89 -4.43 -3.55 q-0.88 -2.66 -0.88 -3.55 q0 -0.89 1.77 -3.55 q1.77 -2.66 -0.89 -4.43 q-2.66 -1.77 -4.44 -1.77 q-1.77 0 -5.32 8.88 q-3.55 8.88 6.21 14.2 q9.76 5.33 23.96 -5.32 l21.3 -33.72 q-1.78 -3.55 -7.1 -5.32 l-19.52 31.94 ZM302.59 905.1 q0 3.54 5.32 3.54 l28.4 -47.91 l-8.88 -5.33 l-24.84 49.7 ZM315.01 915.74 q8.87 1.78 12.42 -2.66 q3.55 -4.44 8.88 -2.66 q5.32 1.78 9.76 4.44 q4.44 2.66 4.44 7.1 q0 4.44 0 5.33 q0 0.89 2.66 3.55 q2.67 2.66 6.22 2.66 l5.32 -58.56 l-10.65 -5.33 l-39.04 46.14 ZM389.55 887.35 q-3.55 1.77 -8.88 7.99 q-5.32 6.21 -7.1 13.31 q-1.78 7.1 -1.78 14.2 q0 7.1 4.44 12.43 q4.44 5.32 7.99 7.1 q3.55 1.77 8.88 1.77 q5.32 0 7.99 -1.77 q2.66 -1.77 6.21 -3.55 q3.55 -1.78 7.1 -9.76 q3.55 -7.99 3.55 -18.63 q0 -10.65 -1.78 -14.2 q-1.77 -3.55 -5.32 -6.21 q-3.55 -2.66 -5.33 -3.55 q-1.77 -0.89 -7.09 -0.89 q-5.32 0 -8.87 1.77 ZM426.81 903.32 l12.43 1.78 l-7.1 46.14 q1.77 1.77 8.87 1.77 l7.1 -44.37 l14.2 0 q1.77 -8.87 -1.78 -10.64 l-33.72 -5.33 l0 10.65 ZM601.62 901.55 q-2.66 -7.1 -13.31 -8.87 q-10.65 -1.77 -17.75 8.88 q-8.87 14.19 -1.77 32.83 q7.1 18.63 26.62 16.87 q3.55 0 7.99 -1.77 q4.44 -1.77 7.99 -3.56 l-5.32 -28.39 l-17.75 3.55 q3.55 8.87 7.99 8.87 q4.43 0 5.32 5.33 q0.89 5.32 -0.89 7.09 q-3.54 1.78 -7.09 1.78 q-3.55 0 -7.1 0 q-8.88 -3.55 -10.65 -15.98 q-1.77 -12.42 0 -19.52 q3.55 -8.87 9.76 -7.09 q6.21 1.77 7.98 4.43 q1.77 2.66 6.21 2.66 q4.43 0 1.77 -7.09 ZM476.5 904.21 q-5.32 2.66 -7.99 7.1 q-2.66 4.43 -4.43 8.88 q-1.78 4.44 -1.78 10.65 q0 6.21 1.78 11.54 q1.77 5.33 5.32 8.88 q3.55 3.55 7.1 6.21 q3.55 2.66 12.42 0.88 q8.87 -1.78 12.42 -4.44 q3.55 -2.66 5.32 -6.21 q1.78 -3.55 2.67 -9.76 q0.89 -6.21 0 -14.2 q-0.89 -7.99 -3.55 -12.42 q-2.66 -4.44 -5.32 -6.21 q-2.67 -1.77 -4.44 -2.66 q-1.77 -0.88 -7.99 -0.88 q-6.21 0 -11.53 2.66 ZM533.3 906.87 q-5.33 -5.32 -6.21 -5.32 q-0.88 0 -9.76 1.77 l3.55 56.79 l5.33 -1.77 l-1.78 -40.82 q1.78 -3.55 2.67 -3.55 q0.88 0 18.63 42.59 l12.42 0 l-1.77 -55.01 l-7.1 0 l1.77 40.81 l-3.55 0 l-14.19 -35.49 ZM512 24.85 q101.16 0 190.78 38.15 q89.62 38.16 156.17 104.7 q66.55 66.55 104.71 156.17 q38.16 89.62 38.16 189.89 q0 100.27 -38.16 189.89 q-38.16 89.62 -104.71 155.28 q-66.55 65.67 -156.17 103.82 q-89.62 38.15 -190.78 38.15 q-101.16 0 -189.89 -38.15 q-88.74 -38.15 -156.17 -103.82 q-67.44 -65.66 -105.59 -155.28 q-38.16 -89.62 -38.16 -189.89 q0 -100.27 38.16 -189.89 q38.16 -89.62 105.59 -156.17 q67.44 -66.55 156.17 -104.7 q88.73 -38.15 189.89 -38.15 ZM508.45 184.57 q67.44 0 127.78 25.73 q60.34 25.73 104.7 70.1 q44.37 44.37 70.1 103.82 q25.74 59.45 25.74 126.89 q0 67.44 -25.74 127.78 q-25.74 60.34 -70.1 104.71 q-44.36 44.37 -104.7 69.22 q-60.34 24.84 -127.78 24.84 q-67.44 0 -126.89 -24.84 q-59.45 -24.85 -103.82 -69.22 q-44.37 -44.37 -70.1 -104.71 q-25.73 -60.34 -25.73 -127.78 q0 -67.44 25.73 -126.89 q25.73 -59.45 70.1 -103.82 q44.37 -44.37 103.82 -70.1 q59.45 -25.73 126.89 -25.73 ZM765.78 514.66 q-23.07 7.1 -23.07 -13.31 q0 -20.41 23.07 -15.08 l0 28.39 ZM746.26 596.3 q0 -15.97 1.77 -25.73 q1.77 -9.77 17.75 -0.89 l0 26.62 q-8.87 3.55 -9.76 3.55 q-0.89 0 -9.76 -3.55 ZM119.79 576.78 q1.78 12.42 0 14.2 q-1.77 1.77 -6.21 1.77 q-4.44 0 -6.21 -2.66 q-1.78 -2.67 -1.78 -3.55 q0 -0.88 0 -3.54 q0 -2.66 1.78 -6.21 l12.42 0 ZM96.72 582.1 q1.78 10.65 0 14.2 q-1.77 3.55 -10.66 3.55 l-5.32 -15.97 l1.77 -1.78 l14.2 0 ZM846.53 726.74 q0.89 -0.89 1.78 -3.55 q0.88 -2.66 4.43 -4.44 q5.33 -1.77 9.77 1.78 q4.43 3.55 2.65 8.87 q0 1.78 -2.66 3.55 q-2.66 1.77 -3.54 3.54 q-0.88 1.77 -2.66 0.89 q-1.78 -0.88 -2.67 -1.77 q-0.89 -0.89 -4.44 -2.66 q-3.55 -1.77 -3.55 -3.55 q0 -1.77 0.89 -2.66 ZM480.05 767.56 q1.78 2.66 0 4.44 q-1.77 1.77 -5.32 1.77 q-3.55 0 -4.44 -0.89 q-0.88 -0.89 -0.88 -3.55 q0 -2.66 0.88 -3.55 q0.88 -0.89 4.44 -0.89 q3.55 0 5.32 2.67 ZM519.1 768.44 q1.77 3.55 1.77 4.44 q0 0.89 -1.77 3.55 q-1.77 2.66 -6.21 2.66 q-4.44 0 -5.32 -0.88 q-0.88 -0.88 -0.88 -6.21 q0 -5.33 0.88 -6.22 q0.88 -0.89 5.32 -0.89 q4.44 0 6.21 3.55 ZM550.15 779.09 q2.67 0 3.55 0 q0.88 0 2.66 3.55 q1.77 3.55 0 7.1 q-1.77 3.55 -5.33 3.55 q-3.55 0 -4.43 -0.89 q-0.88 -0.89 -0.88 -5.32 q0 -4.44 0.88 -6.21 q0.88 -1.77 3.55 -1.77 ZM480.05 786.19 q1.78 3.55 0 5.32 q-1.77 1.77 -6.21 1.77 q-4.44 0 -5.33 -3.55 q-0.89 -3.55 0.88 -5.33 q1.78 -1.77 5.33 -1.77 q3.55 0 5.32 3.55 ZM354.05 906.87 q-7.1 0 -7.1 -0.88 q0 -0.88 -3.55 -1.77 q-3.55 -0.89 -3.55 -4.44 l12.43 -17.75 l3.55 0 l-1.78 24.85 ZM403.75 895.34 q1.77 0.88 4.43 5.33 q2.66 4.44 0.89 11.53 q-1.77 7.1 -3.55 12.42 q-1.77 5.33 -4.43 7.99 q-2.66 2.66 -7.99 2.66 q-5.33 0 -7.99 -1.77 q-2.66 -1.77 -4.44 -7.1 q-1.77 -5.32 1.78 -15.09 q3.55 -9.76 7.1 -13.31 q3.55 -3.55 7.99 -3.55 q4.44 0 6.21 0.88 ZM495.14 912.19 q2.66 3.55 4.44 8.88 q1.77 5.32 0 14.2 q-1.78 8.88 -4.44 12.43 q-2.66 3.55 -6.21 3.55 q-3.55 0 -7.99 -1.77 q-4.44 -1.77 -6.21 -7.1 q-1.78 -5.33 -1.78 -11.54 q0 -6.21 0.89 -10.65 q0.88 -4.44 4.43 -7.99 q3.55 -3.55 8.88 -3.55 q5.33 0 7.99 3.55 Z"/></svg>